HIERARCHY
ROOT pelvis
{
  OFFSET 0 100 0
  CHANNELS 6 Xposition Yposition Zposition Zrotation Xrotation Yrotation
  JOINT pelvis_right_femur
  {
    OFFSET -10.78128 -3.44521 -0.5502486
    CHANNELS 3 Zrotation Xrotation Yrotation
    JOINT right_femur_tibia
    {
      OFFSET -0.8047443 -44.0398 -0.1307829
      CHANNELS 3 Zrotation Xrotation Yrotation
      JOINT right_tibia_foot
      {
        OFFSET 3.006224 -47.83518 -5
        CHANNELS 3 Zrotation Xrotation Yrotation
        End Site
        {
          OFFSET 0 -5 15
        }
      }
    }
  }
  JOINT pelvis_left_femur
  {
    OFFSET 10.78128 -3.44521 -0.5502486
    CHANNELS 3 Zrotation Xrotation Yrotation
    JOINT left_femur_tibia
    {
      OFFSET 0.8047443 -44.0398 -0.1307829
      CHANNELS 3 Zrotation Xrotation Yrotation
      JOINT left_tibia_foot
      {
        OFFSET -4.370144 -48.10324 -4.275266
        CHANNELS 3 Zrotation Xrotation Yrotation
        End Site
        {
          OFFSET 0 -5 15
        }
      }
    }
  }
  JOINT pelvis_spine1
  {
    OFFSET 0 6.468898 -3.129235
    CHANNELS 3 Zrotation Xrotation Yrotation
    JOINT spine1
    {
      OFFSET 0 23.15396 4.99043
      CHANNELS 3 Zrotation Xrotation Yrotation
      JOINT spine2
      {
        OFFSET 0 20.79997 -5.064912
        CHANNELS 3 Zrotation Xrotation Yrotation
        JOINT neck
        {
          OFFSET 0 14.38658 9.616178
          CHANNELS 3 Zrotation Xrotation Yrotation
          End Site
          {
            OFFSET 0 20 0
          }
        }
      }
      JOINT right_manubrium
      {
        OFFSET -5.722621 16.35077 3.967754
        CHANNELS 3 Zrotation Xrotation Yrotation
        JOINT right_clavicle
        {
          OFFSET -13.16364 1.694482 -4.693211
          CHANNELS 3 Zrotation Xrotation Yrotation
          JOINT right_humerus
          {
            OFFSET -28.5034 -0.3100689 -2.792744
            CHANNELS 3 Zrotation Xrotation Yrotation
            JOINT right_radius
            {
              OFFSET -25.15693 0.02248979 -1.271978
              CHANNELS 3 Zrotation Xrotation Yrotation
              End Site
              {
                OFFSET -15 0 0
              }
            }
          }
        }
      }
      JOINT left_manubrium
      {
        OFFSET 5.722621 16.35077 3.967754
        CHANNELS 3 Zrotation Xrotation Yrotation
        JOINT left_clavicle
        {
          OFFSET 13.16364 1.694482 -4.693211
          CHANNELS 3 Zrotation Xrotation Yrotation
          JOINT left_humerus
          {
            OFFSET 29.39168 -1.063119 -2.237045
            CHANNELS 3 Zrotation Xrotation Yrotation
            JOINT left_radius
            {
              OFFSET 24.59957 -0.9528479 0.9047498
              CHANNELS 3 Zrotation Xrotation Yrotation
              End Site
              {
                OFFSET 15 -0 -0
              }
            }
          }
        }
      }
    }
  }
}
MOTION
Frames: 16
Frame Time: 0.0416666666667
22.06919 105.4766 222.4525 0.3297747 -5.351178 -2.232055 2.195356 11.60001 5.142221 2.477811e-10 31.26907 2.056802e-10 -2.690186 -11.67365 -1.633636 -1.985845 -18.88001 -9.377049 -1.081215e-10 20.02968 -7.92088e-10 -2.319739 -8.826695 20.64391 -1.813829 -0.9406841 7.243286 -0.1807072 9.880227 -4.025051 1.617301 22.04079 5.923776 2.461407 -19.21062 7.438988 2.863402 -21.75607 11.77745 81.17833 27.36445 -6.99448 6.986075e-12 1.527625e-10 22.92512 -21.91399 12.27745 13.02011 4.58425 -16.8377 -1.524801 -95.38393 21.25321 27.08311 -6.960258e-11 -6.21079e-11 -7.01686 0.9429291 11.58356 11.52319
22.82137 105.4322 227.6033 0.3881045 -5.286988 -2.341604 1.976922 9.718304 5.01637 2.124355e-10 33.03937 1.800537e-10 -2.773028 -10.91187 -1.777491 -2.549674 -16.91844 -10.15021 -2.171465e-10 17.58639 -7.996376e-10 -1.827645 -9.846155 20.85583 -2.018501 -1.006738 6.950209 -0.1416232 9.853813 -4.20274 1.617647 22.21063 6.073706 2.515432 -19.40851 7.631956 2.923256 -21.66603 11.75087 82.05055 27.5486 -7.642431 3.780229e-12 1.346009e-10 22.58819 -21.80892 12.12965 12.95526 4.757778 -17.06754 -1.629376 -95.57491 21.4593 26.62796 -6.56706e-11 -5.788105e-11 -7.452901 1.201784 11.89218 11.30329
23.55989 105.3465 232.6595 0.4744162 -5.118168 -2.28827 1.725106 6.335256 4.788517 1.535566e-10 35.30878 1.403839e-10 -2.935144 -9.729974 -2.042065 -3.35388 -13.49174 -11.28094 -3.62409e-10 14.2757 -7.85165e-10 -1.103729 -11.44382 21.07245 -2.304466 -1.108781 6.451493 -0.03353561 9.801954 -4.541061 1.611439 22.43966 6.303659 2.601648 -19.72906 7.9214 3.033539 -21.40618 11.70032 83.40389 27.87149 -8.864128 -1.132582e-12 1.042259e-10 21.84679 -21.49673 11.91759 12.72707 5.04382 -17.4983 -1.791951 -95.6486 21.83152 25.68608 -5.780304e-11 -4.996449e-11 -8.373496 1.651576 12.36646 10.89715
24.26559 105.2245 237.5724 0.5517834 -4.804137 -2.070673 1.534986 1.978324 4.504909 8.13872e-11 37.10947 9.710353e-11 -3.120027 -8.418437 -2.375193 -4.132977 -9.170572 -12.4153 -4.913276e-10 11.1191 -7.283291e-10 -0.3638029 -13.19987 21.09474 -2.578528 -1.215873 5.820786 0.1480277 9.67801 -4.976485 1.59366 22.55538 6.533048 2.682654 -20.03029 8.199579 3.173812 -20.87651 11.57836 84.49584 28.24595 -10.35541 -6.904065e-12 6.775192e-11 20.6751 -20.84321 11.66277 12.24371 5.357691 -17.97885 -1.95196 -95.03853 22.35318 24.19423 -4.656567e-11 -3.966409e-11 -9.658297 2.183434 12.82474 10.35372
24.90963 105.0711 242.3429 0.5880197 -4.432016 -1.716756 1.488224 -2.96382 4.136924 6.858774e-12 37.93934 5.081875e-11 -3.398657 -7.055093 -2.758325 -4.750974 -4.376009 -13.34534 -5.705611e-10 8.941824 -6.226798e-10 0.2671319 -14.88096 20.86902 -2.772847 -1.317533 5.12867 0.3878549 9.557618 -5.487543 1.569627 22.58924 6.72999 2.758898 -20.29576 8.423959 3.28604 -20.1599 11.43148 85.52095 28.54512 -12.12954 -1.265991e-11 2.83093e-11 19.1349 -20.01498 11.42659 11.5821 5.689067 -18.58398 -2.14156 -93.92944 22.82782 22.26532 -3.245593e-11 -2.725825e-11 -11.29653 2.838475 13.2586 9.629279
25.47338 104.8954 246.9903 0.5796741 -4.077739 -1.267567 1.559698 -7.781268 3.714038 -5.903697e-11 37.72273 4.403915e-12 -3.745515 -5.747288 -3.127532 -5.152751 0.2366336 -13.94719 -5.959488e-10 7.902689 -4.857666e-10 0.7144074 -16.24954 20.39611 -2.861271 -1.400433 4.456427 0.6394189 9.454469 -5.986963 1.545127 22.51031 6.855242 2.812832 -20.44652 8.547376 3.323635 -19.34389 11.25979 86.22462 28.65459 -13.86903 -1.784485e-11 -9.257618e-12 17.41727 -19.1425 11.21384 10.84147 5.988088 -19.21154 -2.352461 -92.32897 23.12326 20.10086 -1.735728e-11 -1.442529e-11 -13.02028 3.554652 13.59979 8.771595
25.92831 104.7179 251.5318 0.5124844 -3.722166 -0.774921 1.777587 -12.44947 3.263708 -1.160322e-10 36.23094 -4.236828e-11 -4.153303 -4.550536 -3.479102 -5.355343 4.614088 -14.19977 -5.602248e-10 8.229368 -3.041918e-10 0.9225543 -17.23813 19.60108 -2.823793 -1.461953 3.810608 0.9108197 9.354566 -6.471615 1.518716 22.27962 6.894083 2.835864 -20.45862 8.548791 3.290372 -18.38979 11.05348 86.44245 28.59909 -15.53613 -2.231454e-11 -4.41892e-11 15.48726 -18.17228 11.02447 9.983353 6.240635 -19.83781 -2.572222 -90.10225 23.20765 17.65282 -1.11317e-12 -1.296397e-12 -14.83833 4.310705 13.81037 7.789146
26.25164 104.5491 256.043 0.3865465 -3.469552 -0.2945554 2.163165 -16.71323 2.795068 -1.589031e-10 33.67328 -9.010233e-11 -4.685027 -3.490095 -3.811505 -5.39244 8.484003 -14.13007 -4.712533e-10 10.12938 -9.56617e-11 0.8963501 -17.84511 18.63109 -2.659556 -1.5101 3.258032 1.184503 9.363686 -6.951276 1.496309 22.07163 6.877908 2.858102 -20.44444 8.473188 3.174923 -17.49968 10.91682 86.90156 28.3518 -17.29798 -2.536837e-11 -7.507738e-11 13.54642 -17.37638 10.94256 9.171576 6.477597 -20.60821 -2.837441 -88.07177 22.97888 15.30185 1.535769e-11 1.175228e-11 -16.7513 5.147606 13.98502 6.71115
26.43564 104.4088 260.5285 0.233293 -3.209913 0.1435908 2.606784 -20.49001 2.408763 -1.952913e-10 30.53633 -1.328132e-10 -5.174516 -2.650662 -4.098312 -5.347729 11.83595 -13.88006 -3.627884e-10 12.69136 1.223455e-10 0.7092459 -18.14728 17.53056 -2.434548 -1.541245 2.775061 1.451879 9.348764 -7.375065 1.47221 21.76409 6.808462 2.854627 -20.34068 8.327361 3.049576 -16.57945 10.76307 86.88611 28.08936 -18.8149 -2.801776e-11 -1.009743e-10 11.65207 -16.53352 10.87012 8.331706 6.652398 -21.2669 -3.060823 -85.79291 22.62745 12.99733 3.111421e-11 2.326337e-11 -18.5317 5.889106 14.03191 5.698381
26.48887 104.2989 265.0179 0.07208419 -3.003778 0.5181042 3.08204 -23.54432 2.118988 -2.224339e-10 27.27974 -1.685191e-10 -5.624644 -2.053284 -4.334343 -5.253441 14.46112 -13.52423 -2.518785e-10 15.66556 3.239511e-10 0.4226064 -18.20446 16.48215 -2.180523 -1.560933 2.406894 1.690623 9.362717 -7.735333 1.450619 21.48356 6.720229 2.846676 -20.2329 8.162181 2.924632 -15.7892 10.6542 86.85407 27.82978 -20.12994 -2.975347e-11 -1.207559e-10 10.01246 -15.82785 10.85003 7.597812 6.783658 -21.86283 -3.251118 -83.86296 22.1913 11.06119 4.48332e-11 3.269526e-11 -20.09786 6.522249 14.0255 4.824034
26.43645 104.2182 269.5522 -0.07439638 -2.879518 0.8186367 3.552912 -25.70406 1.951128 -2.388674e-10 24.3891 -1.941575e-10 -6.012707 -1.736907 -4.517659 -5.137931 16.21021 -13.16023 -1.529937e-10 18.70909 4.885627e-10 0.1003882 -18.10414 15.66195 -1.937669 -1.573632 2.188207 1.885266 9.433895 -8.027206 1.43448 21.33435 6.649559 2.851608 -20.20319 8.030784 2.826988 -15.25714 10.63561 87.15529 27.62007 -21.26026 -3.021313e-11 -1.334816e-10 8.815737 -15.38192 10.91581 7.072007 6.885842 -22.41427 -3.400043 -82.76494 21.79698 9.759372 5.528916e-11 3.949658e-11 -21.36925 7.01183 14.02817 4.181692
26.32817 104.1534 274.1873 -0.1721858 -2.899624 1.05283 3.93914 -26.72317 1.890236 -2.413098e-10 22.52984 -2.072314e-10 -6.325344 -1.678996 -4.636277 -5.030326 16.89913 -12.89493 -8.330894e-11 21.27459 5.841306e-10 -0.1608005 -17.96019 15.28606 -1.758244 -1.584597 2.153038 2.004163 9.603944 -8.232451 1.429889 21.43858 6.635029 2.888342 -20.32766 7.990709 2.763316 -15.14813 10.75444 88.18625 27.44499 -22.18009 -2.905847e-11 -1.38471e-10 8.291046 -15.38348 11.09687 6.902366 6.976822 -22.94122 -3.515829 -83.03306 21.55822 9.391996 6.088093e-11 4.31831e-11 -22.21314 7.345128 14.12014 3.842271
26.20515 104.109 278.9435 -0.2378738 -2.995955 1.208035 4.284458 -26.36734 1.968008 -2.266337e-10 21.17451 -2.028564e-10 -6.49587 -2.027563 -4.665468 -4.862431 16.29298 -12.58294 -2.120675e-11 23.67766 6.261301e-10 -0.4668317 -17.54305 15.17232 -1.599462 -1.575232 2.312394 2.048946 9.78989 -8.297358 1.431567 21.61148 6.616896 2.918649 -20.46482 7.961364 2.732686 -15.31756 10.93046 89.12241 27.34956 -22.59996 -2.54714e-11 -1.328641e-10 8.358173 -15.63427 11.34647 6.97316 6.992734 -23.25921 -3.548125 -83.94597 21.44427 9.762406 6.112115e-11 4.336606e-11 -22.51136 7.413807 14.16029 3.844853
26.08078 104.1016 283.8761 -0.3226557 -3.164208 1.224819 4.770154 -24.53824 2.215147 -1.887221e-10 19.36467 -1.781437e-10 -6.584885 -2.979147 -4.620286 -4.520764 14.16247 -12.01585 7.419483e-11 27.22854 6.466589e-10 -1.008039 -16.58278 15.15381 -1.364374 -1.53397 2.722567 2.052534 10.03422 -8.246043 1.436643 21.83669 6.559688 2.939265 -20.61369 7.89056 2.723489 -15.73754 11.20168 90.02241 27.32581 -22.6525 -1.790668e-11 -1.138592e-10 8.935715 -16.11725 11.74882 7.228506 6.919878 -23.45326 -3.49439 -85.51275 21.356 10.85731 5.660168e-11 4.030321e-11 -22.42057 7.224308 14.10365 4.176074
25.97475 104.146 288.981 -0.4072984 -3.350463 1.066989 5.258158 -21.09634 2.599964 -1.288075e-10 17.38263 -1.301993e-10 -6.484103 -4.502337 -4.46168 -3.998985 10.481 -11.21174 1.923876e-10 31.17297 6.257293e-10 -1.72432 -15.0835 15.21607 -1.091263 -1.451324 3.347899 1.987322 10.23029 -8.009105 1.443206 21.96052 6.436396 2.917973 -20.64449 7.745067 2.742014 -16.30086 11.46704 90.10553 27.43408 -21.9792 -7.554569e-12 -8.098832e-11 10.01441 -16.67637 12.18921 7.613776 6.711714 -23.29248 -3.314541 -87.08891 21.28584 12.50994 4.65353e-11 3.326666e-11 -21.70839 6.681823 13.85204 4.873058
25.89608 104.2411 294.2377 -0.4826969 -3.564254 0.7294114 5.641592 -16.7754 2.973436 -5.697442e-11 15.54339 -7.085778e-11 -6.267761 -6.194799 -4.217236 -3.358364 6.043615 -10.27283 3.181385e-10 34.84081 5.603648e-10 -2.466037 -13.33733 15.33777 -0.8208469 -1.344702 4.05356 1.860504 10.375 -7.640945 1.452703 21.97841 6.265854 2.863652 -20.54328 7.54487 2.742607 -16.91182 11.68485 89.49134 27.53705 -20.76548 3.157702e-12 -4.181318e-11 11.33856 -17.2738 12.58878 8.0784 6.421874 -22.87644 -3.083522 -88.40428 21.15452 14.36088 3.343422e-11 2.407624e-11 -20.56398 5.977108 13.47419 5.703169
